Coordinates
version=1
nRows=10
nColumns=22
inDegrees=yes

Units are S.I. units (second, meters, Newtons, ...)
If the header above contains a line with 'inDegrees', this indicates whether rotational values are in degrees (yes) or radians (no).

endheader
time	pelvis_tilt	pelvis_list	pelvis_rotation	pelvis_tx	pelvis_ty	pelvis_tz	hip_flexion_r	hip_adduction_r	hip_rotation_r	knee_angle_r	ankle_angle_r	subtalar_angle_r	hip_flexion_l	hip_adduction_l	hip_rotation_l	knee_angle_l	ankle_angle_l	subtalar_angle_l	lumbar_extension	lumbar_bending	lumbar_rotation
      3.82000000	     -3.28725061	     -8.72720484	     64.02784896	      0.68088253	      0.96775543	     -0.29613981	     33.14015708	      4.34268419	      7.48215307	    -30.49419488	      9.82589018	     -4.28731268	      9.82369633	      3.05087845	      5.35357001	    -44.23210335	     10.21949949	      6.85202306	      3.52427516	      3.46945358	      3.99647673
      3.83000000	     -3.32532064	     -8.86686202	     64.13424446	      0.68467139	      0.96820779	     -0.30068918	     32.91991964	      4.41066427	      7.34388759	    -30.51310963	     10.15440227	     -4.47889546	     10.35630050	      2.81468143	      5.21368702	    -45.24825174	      9.12502637	      7.41615529	      3.69426355	      3.51570088	      3.94618673
      3.84000000	     -3.35174679	     -9.00710199	     64.25512877	      0.68831802	      0.96859010	     -0.30504382	     32.70975152	      4.48427864	      7.20374306	    -30.53156787	     10.47327630	     -4.66633884	     10.95072092	      2.57797568	      5.11283244	    -46.34137273	      8.06407016	      7.99012090	      3.83390652	      3.56915131	      3.87262823
      3.85000000	     -3.36940762	     -9.15169706	     64.38920296	      0.69180807	      0.96888789	     -0.30920898	     32.51807118	      4.56211115	      7.06423463	    -30.55628748	     10.78900028	     -4.86649610	     11.61556455	      2.34228817	      5.04101034	    -47.51406573	      7.06714224	      8.63307410	      3.94944408	      3.63048623	      3.79892295
      3.86000000	     -3.37529392	     -9.29513290	     64.52848919	      0.69518164	      0.96912171	     -0.31317527	     32.33547342	      4.65109027	      6.92793788	    -30.58158701	     11.10700955	     -5.07896558	     12.33993934	      2.10262006	      4.98581490	    -48.75416648	      6.14622461	      9.38018226	      4.03586060	      3.69524294	      3.74209939
      3.87000000	     -3.36117212	     -9.43363700	     64.68357868	      0.69843117	      0.96931586	     -0.31694455	     32.15221391	      4.75336658	      6.79417971	    -30.60306355	     11.39034448	     -5.28369893	     13.11638866	      1.84395125	      4.92664266	    -50.05126212	      5.32700755	     10.22528217	      4.08539402	      3.77171583	      3.67148078
      3.88000000	     -3.31900278	     -9.56872348	     64.84581270	      0.70159314	      0.96948095	     -0.32052173	     31.96354110	      4.87888097	      6.65138179	    -30.61564430	     11.64449640	     -5.47313615	     13.93246566	      1.54912890	      4.84964908	    -51.38415682	      4.63990342	     11.15694644	      4.10047853	      3.86595195	      3.61239251
      3.89000000	     -3.25886939	     -9.69863011	     65.00368651	      0.70469163	      0.96962766	     -0.32390915	     31.77047551	      5.02677076	      6.52659213	    -30.61751271	     11.88304633	     -5.65996362	     14.77491982	      1.22340503	      4.74085922	    -52.71749446	      4.11849639	     12.21590777	      4.08804693	      3.96697472	      3.58281696
      3.90000000	     -3.18293074	     -9.81696065	     65.15265445	      0.70775043	      0.96977874	     -0.32711351	     31.56248920	      5.19555686	      6.42627364	    -30.60170175	     12.11419945	     -5.84417736	     15.62431069	      0.86391523	      4.58901120	    -54.01590534	      3.78199194	     13.34537215	      4.04387578	      4.06766565	      3.58435162
      3.91000000	     -3.08289404	     -9.93023751	     65.29517338	      0.71077498	      0.96993670	     -0.33014507	     31.34042227	      5.39171433	      6.33400554	    -30.56338257	     12.31082412	     -6.01611153	     16.47354259	      0.45134312	      4.38349427	    -55.25302107	      3.66827384	     14.40810607	      3.97427225	      4.18116960	      3.61289945
